<svg width="12" height="15" viewBox="0 0 12 15" fill="none" xmlns="http://www.w3.org/2000/svg">
<path d="M9.33333 1.33333H11.3333C11.5101 1.33333 11.6797 1.40357 11.8047 1.5286C11.9298 1.65362 12 1.82319 12 2V14C12 14.1768 11.9298 14.3464 11.8047 14.4714C11.6797 14.5964 11.5101 14.6667 11.3333 14.6667H0.666667C0.489856 14.6667 0.320286 14.5964 0.195262 14.4714C0.0702379 14.3464 0 14.1768 0 14V2C0 1.82319 0.0702379 1.65362 0.195262 1.5286C0.320286 1.40357 0.489856 1.33333 0.666667 1.33333H2.66667V0H4V1.33333H8V0H9.33333V1.33333ZM2.66667 5.33333V6.66667H9.33333V5.33333H2.66667ZM2.66667 8V9.33333H9.33333V8H2.66667Z" fill="#017849"/>
</svg>
