<svg width="125" height="49" viewBox="0 0 125 49" fill="none" xmlns="http://www.w3.org/2000/svg">
<path d="M0 0.376709H101C114.255 0.376709 125 11.1219 125 24.3767C125 37.6315 114.255 48.3767 101 48.3767H0V0.376709Z" fill="#00995D"/>
<path fill-rule="evenodd" clip-rule="evenodd" d="M25 23.3767C25 20.0677 27.691 17.3767 31 17.3767C34.309 17.3767 37 20.0677 37 23.3767C37 26.6857 34.309 29.3767 31 29.3767C27.691 29.3767 25 26.6857 25 23.3767ZM40.707 31.6697L37.312 28.2737C38.365 26.9197 39 25.2227 39 23.3767C39 18.9657 35.411 15.3767 31 15.3767C26.589 15.3767 23 18.9657 23 23.3767C23 27.7877 26.589 31.3767 31 31.3767C32.846 31.3767 34.543 30.7417 35.897 29.6887L39.293 33.0837C39.488 33.2787 39.744 33.3767 40 33.3767C40.256 33.3767 40.512 33.2787 40.707 33.0837C41.098 32.6927 41.098 32.0607 40.707 31.6697Z" fill="white"/>
<path d="M58.0138 21.2567V24.2167H63.1978V26.2967H58.0138V30.3767H55.4218V19.1767H63.8858V21.2567H58.0138ZM65.3083 21.7687H67.8043V30.3767H65.3083V21.7687ZM66.5563 20.5687C66.0976 20.5687 65.7243 20.4354 65.4363 20.1687C65.1483 19.902 65.0043 19.5714 65.0043 19.1767C65.0043 18.782 65.1483 18.4514 65.4363 18.1847C65.7243 17.918 66.0976 17.7847 66.5563 17.7847C67.0149 17.7847 67.3883 17.9127 67.6763 18.1687C67.9643 18.4247 68.1083 18.7447 68.1083 19.1287C68.1083 19.5447 67.9643 19.8914 67.6763 20.1687C67.3883 20.4354 67.0149 20.5687 66.5563 20.5687ZM70.1208 18.5047H72.6168V30.3767H70.1208V18.5047ZM81.1103 29.9607C80.8649 30.142 80.5609 30.2807 80.1983 30.3767C79.8463 30.462 79.4729 30.5047 79.0783 30.5047C78.0543 30.5047 77.2596 30.2434 76.6943 29.7207C76.1396 29.198 75.8623 28.43 75.8623 27.4167V23.8807H74.5343V21.9607H75.8623V19.8647H78.3583V21.9607H80.5023V23.8807H78.3583V27.3847C78.3583 27.7474 78.4489 28.03 78.6302 28.2327C78.8223 28.4247 79.0889 28.5207 79.4303 28.5207C79.8249 28.5207 80.1609 28.414 80.4383 28.2007L81.1103 29.9607ZM84.8954 22.9047C85.194 22.4887 85.594 22.174 86.0954 21.9607C86.6074 21.7474 87.194 21.6407 87.8554 21.6407V23.9447C87.578 23.9234 87.3914 23.9127 87.2954 23.9127C86.5807 23.9127 86.0207 24.1154 85.6154 24.5207C85.21 24.9154 85.0074 25.5127 85.0074 26.3127V30.3767H82.5114V21.7687H84.8954V22.9047ZM92.7646 21.6407C94.098 21.6407 95.122 21.9607 95.8366 22.6007C96.5513 23.23 96.9086 24.1847 96.9086 25.4647V30.3767H94.5726V29.3047C94.1033 30.1047 93.2286 30.5047 91.9486 30.5047C91.2873 30.5047 90.7113 30.3927 90.2206 30.1687C89.7406 29.9447 89.3726 29.6354 89.1166 29.2407C88.8606 28.846 88.7326 28.398 88.7326 27.8967C88.7326 27.0967 89.0313 26.4674 89.6286 26.0087C90.2366 25.55 91.17 25.3207 92.4286 25.3207H94.4126C94.4126 24.7767 94.2473 24.3607 93.9166 24.0727C93.586 23.774 93.09 23.6247 92.4286 23.6247C91.97 23.6247 91.5166 23.6994 91.0686 23.8487C90.6313 23.9874 90.258 24.1794 89.9486 24.4247L89.0526 22.6807C89.522 22.35 90.082 22.094 90.7326 21.9127C91.394 21.7314 92.0713 21.6407 92.7646 21.6407ZM92.5726 28.8247C92.9993 28.8247 93.378 28.7287 93.7086 28.5367C94.0393 28.334 94.274 28.0407 94.4126 27.6567V26.7767H92.7006C91.6766 26.7767 91.1646 27.1127 91.1646 27.7847C91.1646 28.1047 91.2873 28.3607 91.5326 28.5527C91.7886 28.734 92.1353 28.8247 92.5726 28.8247ZM101.552 22.9047C101.85 22.4887 102.25 22.174 102.752 21.9607C103.264 21.7474 103.85 21.6407 104.512 21.6407V23.9447C104.234 23.9234 104.048 23.9127 103.952 23.9127C103.237 23.9127 102.677 24.1154 102.272 24.5207C101.866 24.9154 101.664 25.5127 101.664 26.3127V30.3767H99.1676V21.7687H101.552V22.9047Z" fill="white"/>
</svg>
