<svg width="14" height="14" viewBox="0 0 14 14" fill="none" xmlns="http://www.w3.org/2000/svg">
<path fill-rule="evenodd" clip-rule="evenodd" d="M9.66683 9.66671C9.66683 10.0334 9.36683 10.3334 9.00016 10.3334C8.6335 10.3334 8.3335 10.0334 8.3335 9.66671V7.00004C8.3335 6.63337 8.6335 6.33337 9.00016 6.33337C9.36683 6.33337 9.66683 6.63337 9.66683 7.00004V9.66671ZM5.66683 1.88537C5.66683 1.78204 5.8095 1.66671 6.00016 1.66671H8.00016C8.19083 1.66671 8.3335 1.78204 8.3335 1.88537V3.00004H5.66683V1.88537ZM5.66683 9.66671C5.66683 10.0334 5.36683 10.3334 5.00016 10.3334C4.6335 10.3334 4.3335 10.0334 4.3335 9.66671V7.00004C4.3335 6.63337 4.6335 6.33337 5.00016 6.33337C5.36683 6.33337 5.66683 6.63337 5.66683 7.00004V9.66671ZM13.0002 3.00004H12.3335H9.66683V1.88537C9.66683 1.02937 8.9195 0.333374 8.00016 0.333374H6.00016C5.08083 0.333374 4.3335 1.02937 4.3335 1.88537V3.00004H1.66683H1.00016C0.633496 3.00004 0.333496 3.30004 0.333496 3.66671C0.333496 4.03337 0.633496 4.33337 1.00016 4.33337H1.66683V11.6667C1.66683 12.7694 2.56416 13.6667 3.66683 13.6667H10.3335C11.4362 13.6667 12.3335 12.7694 12.3335 11.6667V4.33337H13.0002C13.3668 4.33337 13.6668 4.03337 13.6668 3.66671C13.6668 3.30004 13.3668 3.00004 13.0002 3.00004Z" fill="#EB5757"/>
</svg>
